<!-- Grey eraser icon to match the grey marker -->
<svg xmlns="http://www.w3.org/2000/svg" viewBox="0 0 24 24" width="24px" height="24px">
  <path d="M0 0h24v24H0z" fill="none"/>
  <!-- Eraser body - made thinner -->
  <path d="M15.5 4l4.5 4.5c.78.79.78 2.05 0 2.83L12 19.5l-6.5-6.5 7.5-7.5c.78-.78 1.72-.78 2.5-.5z" fill="#F5F5F5" stroke="#E0E0E0" stroke-width="1"/>
  <!-- Eraser top section - made thinner -->
  <path d="M15.5 4l4.5 4.5c.78.79.78 2.05 0 2.83L15 16.5 9 9l3.8-3.5c.78-.78 1.92-.78 2.7-.5z" fill="#E0E0E0"/>
  <!-- Eraser bottom section - made thinner -->
  <path d="M12 19.5l-6.5-6.5 4-4L15 14.5l-3 5z" fill="#CCCCCC"/>
</svg>
